<svg width="117" height="60" viewBox="0 0 117 60" fill="none" xmlns="http://www.w3.org/2000/svg">
<path d="M45.956 16.688C45.41 16.636 45.046 16.584 44.682 16.48C44.11 16.324 43.798 16.194 43.72 14.556C43.668 13.334 43.616 5.742 43.616 2.024C43.616 1.946 43.668 1.816 43.746 1.79C44.396 1.764 46.762 1.738 47.802 1.816C48.322 1.842 48.608 2.076 48.79 2.544C48.998 3.064 49.102 3.974 49.154 4.598C49.18 4.676 49.57 4.702 49.596 4.598C49.7 3.298 49.882 1.556 50.116 0.801999C50.116 0.776 50.038 0.75 50.012 0.75C49.206 1.036 48.686 1.062 47.802 1.062H38.156C37.506 1.062 36.596 0.88 36.206 0.671999C36.154 0.646 36.076 0.697999 36.076 0.697999C36.024 1.738 35.79 3.558 35.608 4.624C35.634 4.702 35.972 4.754 36.024 4.702C36.31 3.87 36.648 2.908 36.986 2.414C37.22 2.024 37.532 1.79 37.922 1.79C38.468 1.738 41.302 1.738 41.796 1.764C41.848 1.764 41.952 1.842 41.952 1.946C41.952 6.158 41.926 13.828 41.9 14.582C41.848 15.752 41.77 16.324 40.964 16.454C40.652 16.532 40.08 16.61 39.248 16.688C39.17 16.766 39.17 16.974 39.248 17.078C40.002 17.078 41.354 17 42.784 17C43.668 17 45.15 17.078 45.904 17.078C45.982 17.052 46.008 16.766 45.956 16.688ZM51.3551 1.374C52.0051 1.478 52.3951 1.504 52.7851 1.608C53.1751 1.712 53.4091 1.946 53.4611 2.726C53.4871 3.09 53.5131 6.106 53.5131 8.628C53.5131 10.864 53.5131 13.464 53.4871 14.426C53.4351 15.596 53.4351 16.194 52.6811 16.428C52.3691 16.532 51.9011 16.61 51.3551 16.688C51.2771 16.766 51.2771 17 51.3551 17.078C51.9531 17.052 53.4091 17 54.3971 17C55.3851 17 56.3731 17.052 57.1791 17.078C57.2571 17.052 57.3091 16.766 57.2571 16.688C56.3991 16.584 56.1911 16.506 55.8271 16.402C55.2031 16.22 55.2551 15.7 55.1771 14.816C55.1511 14.426 55.1251 10.786 55.1251 9.46C55.1251 9.434 55.1771 9.304 55.2291 9.304C55.5151 9.278 58.1931 9.278 60.0131 9.278C61.3911 9.278 64.0171 9.278 64.3811 9.304C64.4331 9.304 64.4851 9.382 64.4851 9.486C64.4851 11.098 64.4851 14.53 64.4591 15.18C64.4331 16.116 64.3031 16.324 63.7571 16.48C63.2631 16.61 62.8991 16.636 62.4571 16.688C62.4051 16.766 62.3791 16.974 62.4571 17.078C63.0811 17.052 64.1731 17 65.3691 17C66.5651 17 67.1891 17.078 68.2291 17.078C68.3331 17 68.3331 16.766 68.2811 16.688C67.5271 16.61 67.1891 16.558 66.8511 16.428C66.3571 16.246 66.2271 15.96 66.1751 15.258C66.1231 14.478 66.0971 11.254 66.0971 8.992C66.0971 6.028 66.1491 3.818 66.1751 3.09C66.2011 1.972 66.4091 1.79 66.9551 1.608C67.2411 1.504 67.6571 1.452 68.1251 1.374C68.2031 1.296 68.1771 1.062 68.1251 0.983999C67.7091 0.983999 66.4351 1.062 65.3691 1.062C64.1731 1.062 63.0811 0.983999 62.5871 0.983999C62.5091 1.062 62.5091 1.296 62.5871 1.374C63.0551 1.426 63.4451 1.478 63.9131 1.608C64.2771 1.738 64.4071 2.024 64.4331 2.518C64.4851 3.324 64.4851 6.964 64.4851 8.316C64.4851 8.342 64.4331 8.446 64.3811 8.446C64.1471 8.472 62.6391 8.472 60.0651 8.472C55.6451 8.472 55.2811 8.446 55.2291 8.42C55.1771 8.394 55.1251 8.316 55.1251 8.212C55.1251 5.508 55.1251 3.74 55.1771 2.7C55.2031 1.842 55.4111 1.712 55.9311 1.556C56.1911 1.478 56.6851 1.4 56.9971 1.374C57.0751 1.322 57.0751 1.062 57.0231 0.983999C56.3211 1.01 55.7491 1.062 54.3451 1.062C53.5391 1.062 52.1871 0.983999 51.3551 0.983999C51.3031 1.062 51.2771 1.296 51.3551 1.374ZM69.6388 1.348C70.1588 1.4 70.5228 1.478 70.8348 1.556C71.4848 1.712 71.5888 1.946 71.6408 2.986C71.6668 3.376 71.6928 5.872 71.6928 8.446C71.6928 11.514 71.6668 14.582 71.6408 14.972C71.5628 16.038 71.3548 16.324 70.7308 16.48C70.2628 16.61 69.7428 16.636 69.0928 16.688C69.0148 16.766 69.0408 17.026 69.0928 17.078C70.0808 17.078 70.7048 17 72.4468 17C76.5028 17 77.3088 17.078 78.6088 17.078C79.9348 17.078 80.0128 17.052 80.1688 16.792C80.4548 16.298 81.1048 14.374 81.2348 13.542C81.1828 13.464 80.9488 13.334 80.8968 13.36C80.4808 14.374 79.8828 15.362 79.4928 15.7C79.1548 16.038 78.8428 16.376 77.2568 16.376C75.4108 16.376 74.4748 16.324 73.9548 16.22C73.6948 16.168 73.3568 15.96 73.3308 15.284C73.2788 13.75 73.2528 9.876 73.2788 9.434C73.2788 9.408 73.3308 9.226 73.3828 9.226C74.0848 9.174 76.7628 9.2 77.5428 9.252C78.4268 9.304 78.5308 9.85 78.6088 10.162C78.6868 10.448 78.7128 10.656 78.7648 11.046C78.8168 11.15 79.1288 11.124 79.2068 11.02C79.2068 10.63 79.1548 10.058 79.1548 8.94C79.1548 8.108 79.2588 7.042 79.3368 6.626C79.3108 6.574 78.9728 6.548 78.8948 6.6C78.8168 6.938 78.7388 7.276 78.6348 7.562C78.5048 7.952 78.3488 8.368 77.5168 8.42C76.7628 8.472 74.0068 8.498 73.3568 8.446C73.3048 8.446 73.2788 8.342 73.2788 8.238C73.2528 8.004 73.2788 3.064 73.3308 2.128C73.3308 1.998 73.4088 1.79 73.5908 1.764C74.0068 1.712 76.8928 1.738 77.5688 1.764C78.6868 1.816 78.8688 2.232 79.0508 2.856C79.1288 3.194 79.2068 3.662 79.2588 4.39C79.3368 4.442 79.6228 4.416 79.6748 4.364C79.7528 3.506 79.9088 1.92 80.1428 1.062C80.1428 1.036 80.0908 0.983999 80.0648 0.983999C79.6748 1.036 78.4008 1.062 77.4388 1.062H72.4208C70.9908 1.062 70.2368 0.983999 69.6648 0.983999C69.5868 1.036 69.5608 1.296 69.6388 1.348ZM28.4734 43.374C29.3054 43.478 29.7214 43.582 30.1114 43.712C30.7874 43.946 30.8394 44.492 30.8394 44.882C30.7354 47.092 30.1894 54.788 29.9814 56.4C29.7734 57.96 29.5654 58.376 28.7334 58.532L27.7194 58.688C27.6674 58.74 27.6414 59.026 27.7194 59.078C28.0314 59.078 29.2274 59 30.5794 59C31.8014 59 32.7114 59.078 33.1274 59.078C33.1794 59.052 33.2314 58.74 33.1534 58.688C32.4774 58.584 32.1914 58.558 31.8274 58.454C31.0734 58.298 30.9954 57.622 30.9954 56.504C30.9954 54.866 31.3334 47.69 31.5154 45.324C31.5154 45.298 31.5674 45.272 31.5934 45.298C31.5934 45.298 36.8194 56.894 37.4954 59.208C37.5734 59.234 37.8074 59.234 37.8594 59.208C38.7174 56.764 43.4494 46.962 44.0994 45.61C44.1254 45.584 44.1774 45.584 44.2034 45.61C44.2554 47.82 44.3854 55.646 44.3594 57.206C44.3594 57.96 44.2034 58.298 43.6054 58.454C43.3194 58.532 43.0334 58.584 42.4094 58.688C42.3314 58.74 42.3574 59.052 42.4094 59.078C42.9814 59.052 44.0214 59 45.4254 59C46.5174 59 47.8954 59.078 48.3374 59.078C48.3894 58.974 48.3894 58.74 48.3374 58.688C47.7654 58.636 47.3754 58.584 47.0374 58.506C46.2834 58.324 46.1274 57.934 46.0754 57.024C45.9454 55.074 45.7374 46.182 45.7894 44.648C45.7894 44.31 45.8414 43.816 46.5954 43.634C46.9594 43.53 47.2974 43.478 48.1034 43.374C48.1814 43.322 48.1814 43.036 48.1034 42.984C47.2454 42.984 46.7254 43.062 44.3334 43.062C44.2814 43.634 44.0994 44.024 43.8654 44.544C42.6434 47.196 38.7694 55.23 38.4054 55.906C38.3794 55.958 38.3274 55.958 38.3014 55.932C37.9894 55.412 34.9734 49.016 32.9974 44.518C32.7114 43.92 32.5554 43.608 32.4774 43.062C29.9814 43.062 28.8894 42.984 28.4994 42.984C28.4214 43.01 28.3954 43.322 28.4734 43.374ZM49.3377 43.374C49.9617 43.452 50.4557 43.53 50.7417 43.608C51.3397 43.764 51.3137 44.31 51.3917 44.934C51.4437 46.13 51.4437 48.158 51.4437 50.108C51.4437 52.266 51.4177 56.764 51.3657 57.388C51.3137 57.986 51.2097 58.376 50.5597 58.506C50.2477 58.584 49.7537 58.662 49.3897 58.688C49.3377 58.74 49.3117 59 49.3897 59.078C50.7417 59.078 51.2617 59 52.5357 59C53.6797 59 54.6157 59.078 55.1617 59.078C55.2137 59.026 55.2657 58.766 55.1877 58.688C54.6937 58.636 54.2257 58.558 53.8617 58.454C53.2117 58.272 53.1337 57.83 53.0817 57.024C53.0557 56.166 53.0297 53.28 53.0297 50.836C53.0297 48.574 53.0557 45.974 53.1077 44.882C53.1597 44.076 53.2637 43.686 53.8357 43.53C54.0697 43.478 54.5117 43.426 54.9017 43.374C54.9537 43.296 54.9277 43.062 54.8757 42.984C54.2517 42.984 53.4717 43.062 52.3797 43.062C51.1837 43.062 49.8317 42.984 49.3637 42.984C49.3117 43.036 49.2597 43.322 49.3377 43.374ZM56.0547 43.374C57.1207 43.504 57.7187 43.556 58.2647 44.18C58.6027 44.544 58.7327 45.038 58.7327 45.272C58.6807 50.732 58.5767 55.516 58.5247 56.712C58.4727 58.064 58.0567 58.35 57.4587 58.506C57.1207 58.61 56.8867 58.636 56.3927 58.688C56.3407 58.714 56.3407 59.026 56.3927 59.078C56.9127 59.078 57.7447 59 58.9147 59C60.2407 59 61.3587 59.078 61.8527 59.078C61.9047 59.052 61.9567 58.714 61.8787 58.688C61.4107 58.636 60.8647 58.584 60.5007 58.454C59.9547 58.298 59.5647 58.012 59.5127 56.712C59.4607 55.204 59.4607 48.314 59.4867 45.74C59.4867 45.714 59.5647 45.688 59.5907 45.714C60.7607 47.144 69.0027 57.18 70.3027 59.13C70.5627 59.104 71.3687 59.104 71.6027 59.13C71.5767 58.324 71.5507 56.868 71.5507 55.698C71.6027 52.214 71.5767 46.832 71.7067 44.908C71.7327 44.31 71.8887 43.764 72.5387 43.582C72.8767 43.478 73.0847 43.452 73.5527 43.374C73.6047 43.322 73.6047 43.036 73.5527 42.984C73.2667 42.984 71.9147 43.062 71.1867 43.062C69.9647 43.062 68.8727 42.984 68.2227 42.984C68.1707 43.036 68.1187 43.322 68.1967 43.374C68.7947 43.426 69.3407 43.504 69.7827 43.634C70.5107 43.868 70.6147 44.336 70.6667 45.038C70.8227 46.858 70.7707 53.098 70.7707 56.608L70.6927 56.66C69.7567 55.594 63.5947 48.132 60.5787 44.44C59.8767 43.582 59.6427 43.192 59.5647 43.036C59.3307 43.062 58.9927 43.062 58.4727 43.062C57.6667 43.062 56.4707 42.984 56.1067 42.984C56.0547 43.036 56.0287 43.322 56.0547 43.374ZM84.7656 58.688C84.2196 58.636 83.8556 58.584 83.4916 58.48C82.9196 58.324 82.6076 58.194 82.5296 56.556C82.4776 55.334 82.4256 47.742 82.4256 44.024C82.4256 43.946 82.4776 43.816 82.5556 43.79C83.2056 43.764 85.5716 43.738 86.6116 43.816C87.1316 43.842 87.4176 44.076 87.5996 44.544C87.8076 45.064 87.9116 45.974 87.9636 46.598C87.9896 46.676 88.3796 46.702 88.4056 46.598C88.5096 45.298 88.6916 43.556 88.9256 42.802C88.9256 42.776 88.8476 42.75 88.8216 42.75C88.0156 43.036 87.4956 43.062 86.6116 43.062H76.9656C76.3156 43.062 75.4056 42.88 75.0156 42.672C74.9636 42.646 74.8856 42.698 74.8856 42.698C74.8336 43.738 74.5996 45.558 74.4176 46.624C74.4436 46.702 74.7816 46.754 74.8336 46.702C75.1196 45.87 75.4576 44.908 75.7956 44.414C76.0296 44.024 76.3416 43.79 76.7316 43.79C77.2776 43.738 80.1116 43.738 80.6056 43.764C80.6576 43.764 80.7616 43.842 80.7616 43.946C80.7616 48.158 80.7356 55.828 80.7096 56.582C80.6576 57.752 80.5796 58.324 79.7736 58.454C79.4616 58.532 78.8896 58.61 78.0576 58.688C77.9796 58.766 77.9796 58.974 78.0576 59.078C78.8116 59.078 80.1636 59 81.5936 59C82.4776 59 83.9596 59.078 84.7136 59.078C84.7916 59.052 84.8176 58.766 84.7656 58.688Z" fill="white"/>
<path d="M0.86582 22.374C1.51582 22.478 1.90582 22.504 2.29582 22.608C2.68582 22.712 2.91982 22.946 2.97182 23.726C2.99782 24.09 3.02382 27.106 3.02382 29.628C3.02382 31.864 3.02382 34.464 2.99782 35.426C2.94582 36.596 2.94582 37.194 2.19182 37.428C1.87982 37.532 1.41182 37.61 0.86582 37.688C0.78782 37.766 0.78782 38 0.86582 38.078C1.46382 38.052 2.91982 38 3.90782 38C4.89582 38 5.88382 38.052 6.68982 38.078C6.76782 38.052 6.81982 37.766 6.76782 37.688C5.90982 37.584 5.70182 37.506 5.33782 37.402C4.71382 37.22 4.76582 36.7 4.68782 35.816C4.66182 35.426 4.63582 31.786 4.63582 30.46C4.63582 30.434 4.68782 30.304 4.73982 30.304C5.02582 30.278 7.70382 30.278 9.52382 30.278C10.9018 30.278 13.5278 30.278 13.8918 30.304C13.9438 30.304 13.9958 30.382 13.9958 30.486C13.9958 32.098 13.9958 35.53 13.9698 36.18C13.9438 37.116 13.8138 37.324 13.2678 37.48C12.7738 37.61 12.4098 37.636 11.9678 37.688C11.9158 37.766 11.8898 37.974 11.9678 38.078C12.5918 38.052 13.6838 38 14.8798 38C16.0758 38 16.6998 38.078 17.7398 38.078C17.8438 38 17.8438 37.766 17.7918 37.688C17.0378 37.61 16.6998 37.558 16.3618 37.428C15.8678 37.246 15.7378 36.96 15.6858 36.258C15.6338 35.478 15.6078 32.254 15.6078 29.992C15.6078 27.028 15.6598 24.818 15.6858 24.09C15.7118 22.972 15.9198 22.79 16.4658 22.608C16.7518 22.504 17.1678 22.452 17.6358 22.374C17.7138 22.296 17.6878 22.062 17.6358 21.984C17.2198 21.984 15.9458 22.062 14.8798 22.062C13.6838 22.062 12.5918 21.984 12.0978 21.984C12.0198 22.062 12.0198 22.296 12.0978 22.374C12.5658 22.426 12.9558 22.478 13.4238 22.608C13.7878 22.738 13.9178 23.024 13.9438 23.518C13.9958 24.324 13.9958 27.964 13.9958 29.316C13.9958 29.342 13.9438 29.446 13.8918 29.446C13.6578 29.472 12.1498 29.472 9.57582 29.472C5.15582 29.472 4.79182 29.446 4.73982 29.42C4.68782 29.394 4.63582 29.316 4.63582 29.212C4.63582 26.508 4.63582 24.74 4.68782 23.7C4.71382 22.842 4.92182 22.712 5.44182 22.556C5.70182 22.478 6.19582 22.4 6.50782 22.374C6.58582 22.322 6.58582 22.062 6.53382 21.984C5.83182 22.01 5.25982 22.062 3.85582 22.062C3.04982 22.062 1.69782 21.984 0.86582 21.984C0.81382 22.062 0.78782 22.296 0.86582 22.374ZM19.1495 22.348C19.6695 22.4 20.0335 22.478 20.3455 22.556C20.9955 22.712 21.0995 22.946 21.1515 23.986C21.1775 24.376 21.2035 26.872 21.2035 29.446C21.2035 32.514 21.1775 35.582 21.1515 35.972C21.0735 37.038 20.8655 37.324 20.2415 37.48C19.7735 37.61 19.2535 37.636 18.6035 37.688C18.5255 37.766 18.5515 38.026 18.6035 38.078C19.5915 38.078 20.2155 38 21.9575 38C26.0135 38 26.8195 38.078 28.1195 38.078C29.4455 38.078 29.5235 38.052 29.6795 37.792C29.9655 37.298 30.6155 35.374 30.7455 34.542C30.6935 34.464 30.4595 34.334 30.4075 34.36C29.9915 35.374 29.3935 36.362 29.0035 36.7C28.6655 37.038 28.3535 37.376 26.7675 37.376C24.9215 37.376 23.9855 37.324 23.4655 37.22C23.2055 37.168 22.8675 36.96 22.8415 36.284C22.7895 34.75 22.7635 30.876 22.7895 30.434C22.7895 30.408 22.8415 30.226 22.8935 30.226C23.5955 30.174 26.2735 30.2 27.0535 30.252C27.9375 30.304 28.0415 30.85 28.1195 31.162C28.1975 31.448 28.2235 31.656 28.2755 32.046C28.3275 32.15 28.6395 32.124 28.7175 32.02C28.7175 31.63 28.6655 31.058 28.6655 29.94C28.6655 29.108 28.7695 28.042 28.8475 27.626C28.8215 27.574 28.4835 27.548 28.4055 27.6C28.3275 27.938 28.2495 28.276 28.1455 28.562C28.0155 28.952 27.8595 29.368 27.0275 29.42C26.2735 29.472 23.5175 29.498 22.8675 29.446C22.8155 29.446 22.7895 29.342 22.7895 29.238C22.7635 29.004 22.7895 24.064 22.8415 23.128C22.8415 22.998 22.9195 22.79 23.1015 22.764C23.5175 22.712 26.4035 22.738 27.0795 22.764C28.1975 22.816 28.3795 23.232 28.5615 23.856C28.6395 24.194 28.7175 24.662 28.7695 25.39C28.8475 25.442 29.1335 25.416 29.1855 25.364C29.2635 24.506 29.4195 22.92 29.6535 22.062C29.6535 22.036 29.6015 21.984 29.5755 21.984C29.1855 22.036 27.9115 22.062 26.9495 22.062H21.9315C20.5015 22.062 19.7475 21.984 19.1755 21.984C19.0975 22.036 19.0715 22.296 19.1495 22.348ZM32.0467 22.374C32.6187 22.426 32.9827 22.504 33.2947 22.582C33.9707 22.738 34.0487 23.05 34.1007 24.116C34.1527 25.026 34.1527 28.406 34.1527 29.706C34.1527 31.864 34.1527 34.386 34.0747 36.128C33.9967 37.22 33.6587 37.324 33.2167 37.454C32.8267 37.558 32.3587 37.61 31.8387 37.688C31.7607 37.688 31.7607 38.052 31.8387 38.078C32.4367 38.052 33.7627 38.078 34.0487 38.078C36.2587 38.104 36.9867 38.182 38.4687 38.182C40.6267 38.182 42.3687 37.688 43.9547 36.726C45.6707 35.686 47.7247 33.554 47.7247 29.654C47.7247 27.262 46.9967 25.234 45.3587 23.778C43.9807 22.556 42.0307 21.958 39.7687 21.958C37.7407 21.958 36.6227 22.062 34.9067 22.062C34.2307 22.062 32.7487 22.01 32.0987 21.984C32.0467 22.01 31.9947 22.322 32.0467 22.374ZM35.8167 35.972C35.7647 35.14 35.7647 32.202 35.7647 29.836C35.7647 27.574 35.7647 23.908 35.8167 23.284C35.8427 22.868 36.0247 22.764 36.1547 22.712C36.4147 22.634 37.0907 22.582 37.6367 22.582C39.8987 22.582 41.6927 22.92 42.9147 23.778C45.0467 25.286 45.8527 27.47 45.8527 30.096C45.8527 33.112 45.0207 34.802 43.7467 35.998C42.5247 37.142 41.0167 37.428 39.6127 37.428C38.0267 37.428 36.8827 37.246 36.3887 36.96C35.9727 36.726 35.8427 36.362 35.8167 35.972ZM49.7706 22.348C50.2906 22.4 50.6546 22.478 50.9666 22.556C51.6166 22.712 51.7206 22.946 51.7726 23.986C51.7986 24.376 51.8246 26.872 51.8246 29.446C51.8246 32.514 51.7986 35.582 51.7726 35.972C51.6946 37.038 51.4866 37.324 50.8626 37.48C50.3946 37.61 49.8746 37.636 49.2246 37.688C49.1466 37.766 49.1726 38.026 49.2246 38.078C50.2126 38.078 50.8366 38 52.5786 38C56.6346 38 57.4406 38.078 58.7406 38.078C60.0666 38.078 60.1446 38.052 60.3006 37.792C60.5866 37.298 61.2366 35.374 61.3666 34.542C61.3146 34.464 61.0806 34.334 61.0286 34.36C60.6126 35.374 60.0146 36.362 59.6246 36.7C59.2866 37.038 58.9746 37.376 57.3886 37.376C55.5426 37.376 54.6066 37.324 54.0866 37.22C53.8266 37.168 53.4886 36.96 53.4626 36.284C53.4106 34.75 53.3846 30.876 53.4106 30.434C53.4106 30.408 53.4626 30.226 53.5146 30.226C54.2166 30.174 56.8946 30.2 57.6746 30.252C58.5586 30.304 58.6626 30.85 58.7406 31.162C58.8186 31.448 58.8446 31.656 58.8966 32.046C58.9486 32.15 59.2606 32.124 59.3386 32.02C59.3386 31.63 59.2866 31.058 59.2866 29.94C59.2866 29.108 59.3906 28.042 59.4686 27.626C59.4426 27.574 59.1046 27.548 59.0266 27.6C58.9486 27.938 58.8706 28.276 58.7666 28.562C58.6366 28.952 58.4806 29.368 57.6486 29.42C56.8946 29.472 54.1386 29.498 53.4886 29.446C53.4366 29.446 53.4106 29.342 53.4106 29.238C53.3846 29.004 53.4106 24.064 53.4626 23.128C53.4626 22.998 53.5406 22.79 53.7226 22.764C54.1386 22.712 57.0246 22.738 57.7006 22.764C58.8186 22.816 59.0006 23.232 59.1826 23.856C59.2606 24.194 59.3386 24.662 59.3906 25.39C59.4686 25.442 59.7546 25.416 59.8066 25.364C59.8846 24.506 60.0406 22.92 60.2746 22.062C60.2746 22.036 60.2226 21.984 60.1966 21.984C59.8066 22.036 58.5326 22.062 57.5706 22.062H52.5526C51.1226 22.062 50.3686 21.984 49.7966 21.984C49.7186 22.036 49.6926 22.296 49.7706 22.348ZM62.6418 22.374C63.0838 22.4 63.5518 22.452 63.8898 22.53C64.5398 22.66 64.6958 23.024 64.7218 23.674C64.7738 24.61 64.7738 28.692 64.7738 30.2C64.7738 31.578 64.7478 35.296 64.7218 35.998C64.6958 36.96 64.5398 37.324 63.9158 37.48C63.6558 37.558 63.1618 37.61 62.6418 37.688C62.5378 37.714 62.5378 38.052 62.6418 38.078C63.0318 38.078 63.9418 38 65.5538 38C66.6458 38 68.1018 38.078 68.4398 38.078C68.5178 38 68.5438 37.74 68.4658 37.688C67.9978 37.61 67.5038 37.532 67.1138 37.428C66.6458 37.298 66.4378 37.116 66.4118 35.998C66.3598 35.036 66.3598 32.332 66.3598 30.954C66.3598 30.902 66.4118 30.772 66.4638 30.772C66.9058 30.772 67.9978 30.72 68.4398 30.746C68.6218 30.746 68.8298 30.85 69.0378 31.162C70.0778 32.566 71.8718 35.634 72.8598 36.7C73.3278 37.246 73.6918 37.506 74.0558 37.662C74.8358 38 76.6558 38.13 77.5658 38.078C77.6178 38.052 77.6438 37.74 77.6178 37.688C76.4218 37.584 75.9538 37.454 74.7058 36.206C73.5098 35.01 71.3518 31.864 70.3378 30.226C70.3118 30.2 70.3118 30.148 70.3638 30.096C71.8198 29.446 73.3798 28.224 73.3798 25.936C73.3798 23.83 71.9498 22.01 69.0118 22.01C68.1018 22.01 66.9058 22.062 65.1898 22.062C64.4878 22.062 63.2918 21.984 62.6678 21.984C62.6158 22.01 62.5898 22.322 62.6418 22.374ZM67.4258 22.582C70.3118 22.582 71.7158 23.986 71.7158 26.456C71.7158 28.692 70.5198 29.602 69.6358 29.914C68.9858 30.148 67.3218 30.07 66.4638 29.966C66.4378 29.966 66.3598 29.888 66.3598 29.836C66.3598 28.12 66.3598 23.882 66.4378 22.998C66.4378 22.894 66.5158 22.712 66.5678 22.686C66.7758 22.608 67.1398 22.582 67.4258 22.582ZM77.3944 22.374C78.0184 22.452 78.5124 22.53 78.7984 22.608C79.3964 22.764 79.3704 23.31 79.4484 23.934C79.5004 25.13 79.5004 27.158 79.5004 29.108C79.5004 31.266 79.4744 35.764 79.4224 36.388C79.3704 36.986 79.2664 37.376 78.6164 37.506C78.3044 37.584 77.8104 37.662 77.4464 37.688C77.3944 37.74 77.3684 38 77.4464 38.078C78.7984 38.078 79.3184 38 80.5924 38C81.7364 38 82.6724 38.078 83.2184 38.078C83.2704 38.026 83.3224 37.766 83.2444 37.688C82.7504 37.636 82.2824 37.558 81.9184 37.454C81.2684 37.272 81.1904 36.83 81.1384 36.024C81.1124 35.166 81.0864 32.28 81.0864 29.836C81.0864 27.574 81.1124 24.974 81.1644 23.882C81.2164 23.076 81.3204 22.686 81.8924 22.53C82.1264 22.478 82.5684 22.426 82.9584 22.374C83.0104 22.296 82.9844 22.062 82.9324 21.984C82.3084 21.984 81.5284 22.062 80.4364 22.062C79.2404 22.062 77.8884 21.984 77.4204 21.984C77.3684 22.036 77.3164 22.322 77.3944 22.374ZM83.2992 37.688C83.2212 37.74 83.2212 38.052 83.2992 38.078C83.6892 38.078 84.4692 38 85.7432 38C86.8872 38 88.2392 38.078 88.7072 38.078C88.7592 38.026 88.7852 37.74 88.7332 37.688C88.1872 37.61 87.9532 37.558 87.6412 37.48C86.7832 37.272 86.8092 36.856 86.8872 36.388C86.9912 35.634 88.0572 32.774 88.5772 31.422C88.6032 31.344 88.7072 31.24 88.7852 31.24C89.0452 31.214 89.1752 31.214 90.9172 31.214C92.5292 31.214 93.0752 31.214 93.3352 31.24C93.3612 31.24 93.5172 31.37 93.5172 31.37C94.0112 32.8 94.9992 35.582 95.2852 36.7C95.3892 37.064 95.3892 37.246 94.9732 37.428C94.6092 37.558 94.1932 37.61 93.6732 37.688C93.6212 37.74 93.6472 38.026 93.6732 38.078C94.2192 38.026 95.9352 38 96.5592 38C97.1572 38 98.6392 38.052 99.2892 38.078C99.3672 38.026 99.3932 37.766 99.3412 37.688C97.5992 37.48 97.4952 37.402 96.8192 35.868C96.0392 33.944 93.0232 24.48 92.5552 23.18C92.3992 22.686 92.2952 22.27 92.2432 22.036C92.2172 22.036 92.0352 22.062 91.6452 22.062C91.2812 22.062 91.0732 22.036 91.0472 22.036C90.9952 22.374 90.8652 22.816 90.6832 23.336C90.1112 24.896 87.7712 31.578 86.1852 35.322C85.3792 37.246 85.1192 37.454 83.2992 37.688ZM91.2292 24.064C91.6192 25.208 92.5552 28.224 93.1792 30.2C93.2052 30.304 93.1532 30.382 93.1272 30.382C92.9972 30.408 91.9832 30.408 91.4112 30.408C90.0072 30.408 89.3572 30.408 89.1232 30.382C89.0452 30.356 89.0192 30.304 89.0192 30.2C89.4092 29.056 90.7092 25.182 91.1252 24.09C91.1252 24.064 91.2032 24.064 91.2292 24.064ZM98.8633 22.374C99.9293 22.504 100.527 22.556 101.073 23.18C101.411 23.544 101.541 24.038 101.541 24.272C101.489 29.732 101.385 34.516 101.333 35.712C101.281 37.064 100.865 37.35 100.267 37.506C99.9293 37.61 99.6953 37.636 99.2013 37.688C99.1493 37.714 99.1493 38.026 99.2013 38.078C99.7213 38.078 100.553 38 101.723 38C103.049 38 104.167 38.078 104.661 38.078C104.713 38.052 104.765 37.714 104.687 37.688C104.219 37.636 103.673 37.584 103.309 37.454C102.763 37.298 102.373 37.012 102.321 35.712C102.269 34.204 102.269 27.314 102.295 24.74C102.295 24.714 102.373 24.688 102.399 24.714C103.569 26.144 111.811 36.18 113.111 38.13C113.371 38.104 114.177 38.104 114.411 38.13C114.385 37.324 114.359 35.868 114.359 34.698C114.411 31.214 114.385 25.832 114.515 23.908C114.541 23.31 114.697 22.764 115.347 22.582C115.685 22.478 115.893 22.452 116.361 22.374C116.413 22.322 116.413 22.036 116.361 21.984C116.075 21.984 114.723 22.062 113.995 22.062C112.773 22.062 111.681 21.984 111.031 21.984C110.979 22.036 110.927 22.322 111.005 22.374C111.603 22.426 112.149 22.504 112.591 22.634C113.319 22.868 113.423 23.336 113.475 24.038C113.631 25.858 113.579 32.098 113.579 35.608L113.501 35.66C112.565 34.594 106.403 27.132 103.387 23.44C102.685 22.582 102.451 22.192 102.373 22.036C102.139 22.062 101.801 22.062 101.281 22.062C100.475 22.062 99.2793 21.984 98.9153 21.984C98.8633 22.036 98.8373 22.322 98.8633 22.374Z" fill="#B8AC84"/>
</svg>
